<?xml version="1.0" encoding="utf-8" standalone="no"?>
<!DOCTYPE svg PUBLIC "-//W3C//DTD SVG 1.1//EN"
  "http://www.w3.org/Graphics/SVG/1.1/DTD/svg11.dtd">
<svg xmlns:xlink="http://www.w3.org/1999/xlink" width="288pt" height="288pt" viewBox="0 0 288 288" xmlns="http://www.w3.org/2000/svg" version="1.1">
 <metadata>
  <rdf:RDF xmlns:dc="http://purl.org/dc/elements/1.1/" xmlns:cc="http://creativecommons.org/ns#" xmlns:rdf="http://www.w3.org/1999/02/22-rdf-syntax-ns#">
   <cc:Work>
    <dc:type rdf:resource="http://purl.org/dc/dcmitype/StillImage"/>
    <dc:date>2024-06-26T15:56:18.421601</dc:date>
    <dc:format>image/svg+xml</dc:format>
    <dc:creator>
     <cc:Agent>
      <dc:title>Matplotlib v3.7.5, https://matplotlib.org/</dc:title>
     </cc:Agent>
    </dc:creator>
   </cc:Work>
  </rdf:RDF>
 </metadata>
 <defs>
  <style type="text/css">*{stroke-linejoin: round; stroke-linecap: butt}</style>
 </defs>
 <g id="figure_1">
  <g id="patch_1">
   <path d="M 0 288 
L 288 288 
L 288 0 
L 0 0 
z
" style="fill: #ffffff"/>
  </g>
  <g id="axes_1">
   <g id="patch_2">
    <path d="M 47.776144 256.32 
L 247.423856 256.32 
L 247.423856 34.56 
L 47.776144 34.56 
z
" style="fill: #ffffff"/>
   </g>
   <g id="PathCollection_1">
    <path d="M 124.430092 189.050123 
L 124.929054 189.038516 
L 125.202888 189.032459 
L 125.975684 188.966994 
L 126.74848 188.853489 
L 127.521276 188.691656 
L 128.294072 188.480629 
L 129.039916 188.2284 
L 129.066867 188.219456 
L 129.839663 187.920241 
L 130.612459 187.569281 
L 130.908197 187.418284 
L 131.385255 187.174892 
L 132.158051 186.73294 
L 132.358769 186.608168 
L 132.930847 186.248471 
L 133.585486 185.798052 
L 133.703642 185.715134 
L 134.476438 185.139891 
L 134.669965 184.987935 
L 135.249234 184.519652 
L 135.6526 184.177819 
L 136.02203 183.853279 
L 136.556114 183.367703 
L 136.794826 183.141299 
L 137.396367 182.557587 
L 137.567621 182.38322 
L 138.184157 181.747471 
L 138.340417 181.577492 
L 138.926663 180.937355 
L 139.113213 180.7214 
L 139.628441 180.127239 
L 139.886009 179.810886 
L 140.292152 179.317123 
L 140.658805 178.840312 
L 140.919102 178.507007 
L 141.431601 177.802158 
L 141.509663 177.696891 
L 142.072021 176.886775 
L 142.204396 176.681215 
L 142.603926 176.076659 
L 142.977192 175.462309 
L 143.099562 175.266543 
L 143.568818 174.456427 
L 143.749988 174.115849 
L 144.008112 173.646311 
L 144.415094 172.836195 
L 144.522784 172.602336 
L 144.79808 172.026079 
L 145.148982 171.215963 
L 145.29558 170.842829 
L 145.474298 170.405847 
L 145.773195 169.595731 
L 146.039795 168.785615 
L 146.068375 168.688327 
L 146.287388 167.975499 
L 146.506082 167.165383 
L 146.695877 166.355267 
L 146.841171 165.62941 
L 146.858877 165.545151 
L 147.00101 164.735035 
L 147.115512 163.924919 
L 147.202936 163.114803 
L 147.263612 162.304687 
L 147.297662 161.494571 
L 147.305016 160.684455 
L 147.285428 159.874339 
L 147.238486 159.064223 
L 147.163622 158.254106 
L 147.060117 157.44399 
L 146.927108 156.633874 
L 146.841171 156.204236 
L 146.766189 155.823758 
L 146.577236 155.013642 
L 146.355919 154.203526 
L 146.100754 153.39341 
L 146.068375 153.301088 
L 145.817157 152.583294 
L 145.497656 151.773178 
L 145.29558 151.310507 
L 145.14303 150.963062 
L 144.752797 150.152946 
L 144.522784 149.716176 
L 144.323785 149.34283 
L 143.854657 148.532714 
L 143.749988 148.364003 
L 143.344724 147.722598 
L 142.977192 147.18235 
L 142.789329 146.912482 
L 142.204396 146.125304 
L 142.186872 146.102366 
L 141.535177 145.29225 
L 141.431601 145.17002 
L 140.829189 144.482134 
L 140.658805 144.296344 
L 140.06433 143.672018 
L 139.886009 143.492037 
L 139.234663 142.861902 
L 139.113213 142.748311 
L 138.340417 142.058751 
L 138.332226 142.051786 
L 137.567621 141.417937 
L 137.342063 141.24167 
L 136.794826 140.822624 
L 136.249668 140.431554 
L 136.02203 140.270768 
L 135.249234 139.760014 
L 135.02331 139.621438 
L 134.476438 139.288755 
L 133.703642 138.858132 
L 133.611724 138.811322 
L 132.930847 138.464999 
L 132.158051 138.112683 
L 131.882222 138.001206 
L 131.385255 137.799225 
L 130.612459 137.526536 
L 129.839663 137.296482 
L 129.402443 137.19109 
L 129.066867 137.108982 
L 128.294072 136.965648 
L 127.521276 136.869376 
L 126.74848 136.822137 
L 125.975684 136.826295 
L 125.202888 136.884603 
L 124.430092 137.000201 
L 123.657297 137.176601 
L 123.609668 137.19109 
L 122.884501 137.415831 
L 122.111705 137.723492 
L 121.543204 138.001206 
L 121.338909 138.103597 
L 120.566113 138.559562 
L 120.197985 138.811322 
L 119.793318 139.097033 
L 119.140486 139.621438 
L 119.020522 139.721247 
L 118.254169 140.431554 
L 118.247726 140.437759 
L 117.485632 141.24167 
L 117.47493 141.253441 
L 116.802951 142.051786 
L 116.702134 142.17717 
L 116.186475 142.861902 
L 115.929338 143.221011 
L 115.623927 143.672018 
L 115.156543 144.402046 
L 115.10765 144.482134 
L 114.633385 145.29225 
L 114.383747 145.745581 
L 114.194962 146.102366 
L 113.789938 146.912482 
L 113.610951 147.292498 
L 113.415024 147.722598 
L 113.068396 148.532714 
L 112.838155 149.111023 
L 112.748344 149.34283 
L 112.451549 150.152946 
L 112.179285 150.963062 
L 112.065359 151.325355 
L 111.927359 151.773178 
L 111.694823 152.583294 
L 111.482594 153.39341 
L 111.292564 154.189726 
L 111.289308 154.203526 
L 111.108401 155.013642 
L 110.944131 155.823758 
L 110.795452 156.633874 
L 110.661404 157.44399 
L 110.541124 158.254106 
L 110.519768 158.410404 
L 110.42994 159.064223 
L 110.330383 159.874339 
L 110.2429 160.684455 
L 110.16712 161.494571 
L 110.102784 162.304687 
L 110.049747 163.114803 
L 110.007977 163.924919 
L 109.977551 164.735035 
L 109.958661 165.545151 
L 109.951605 166.355267 
L 109.9568 167.165383 
L 109.974781 167.975499 
L 110.00621 168.785615 
L 110.051882 169.595731 
L 110.112742 170.405847 
L 110.189898 171.215963 
L 110.284641 172.026079 
L 110.398466 172.836195 
L 110.519768 173.566596 
L 110.532291 173.646311 
L 110.680081 174.456427 
L 110.851361 175.266543 
L 111.048631 176.076659 
L 111.274782 176.886775 
L 111.292564 176.944009 
L 111.520351 177.696891 
L 111.799126 178.507007 
L 112.065359 179.190983 
L 112.114089 179.317123 
L 112.458927 180.127239 
L 112.838155 180.912337 
L 112.850393 180.937355 
L 113.281074 181.747471 
L 113.610951 182.30288 
L 113.767447 182.557587 
L 114.313072 183.367703 
L 114.383747 183.465237 
L 114.93 184.177819 
L 115.156543 184.451222 
L 115.635805 184.987935 
L 115.929338 185.296277 
L 116.45438 185.798052 
L 116.702134 186.02328 
L 117.424541 186.608168 
L 117.47493 186.647526 
L 118.247726 187.186223 
L 118.636901 187.418284 
L 119.020522 187.643593 
L 119.793318 188.027817 
L 120.284124 188.2284 
L 120.566113 188.344305 
L 121.338909 188.601357 
L 122.111705 188.796241 
L 122.884501 188.933655 
L 123.657297 189.017205 
L 124.165725 189.038516 
z
" clip-path="url(#p8d79472797)" style="fill: #99c1f0; fill-opacity: 0.5"/>
   </g>
   <g id="PathCollection_2"/>
   <g id="PathCollection_3"/>
   <g id="PathCollection_4"/>
   <g id="PathCollection_5">
    <path d="M 115.997473 188.650603 
L 117.000728 188.896043 
L 118.003982 189.071042 
L 119.007237 189.182793 
L 120.010492 189.237035 
L 121.013747 189.238252 
L 122.017002 189.189825 
L 123.020257 189.094163 
L 124.023511 188.95279 
L 125.026766 188.766426 
L 126.030021 188.535031 
L 126.727792 188.343317 
L 127.033276 188.262962 
L 128.036531 187.959109 
L 129.039786 187.610887 
L 130.0111 187.228945 
L 130.04304 187.21674 
L 131.046295 186.799281 
L 132.04955 186.334417 
L 132.487576 186.114573 
L 133.052805 185.835119 
L 134.05606 185.298357 
L 134.575077 185.000201 
L 135.059315 184.723173 
L 136.062569 184.110675 
L 136.411871 183.885829 
L 137.065824 183.462362 
L 138.065443 182.771457 
L 138.069079 182.768907 
L 139.072334 182.046809 
L 139.587641 181.657085 
L 140.075589 181.279302 
L 140.989706 180.542714 
L 141.078844 180.468587 
L 142.082098 179.619158 
L 142.302555 179.428342 
L 143.085353 178.723928 
L 143.532348 178.31397 
L 144.088608 177.779604 
L 144.685643 177.199598 
L 145.091863 176.783206 
L 145.770111 176.085226 
L 146.095118 175.729759 
L 146.790929 174.970854 
L 147.098373 174.611902 
L 147.751228 173.856482 
L 148.101627 173.419329 
L 148.652454 172.742111 
L 149.104882 172.137998 
L 149.494653 171.627739 
L 150.108137 170.749014 
L 150.276717 170.513367 
L 151.003319 169.398995 
L 151.111392 169.215603 
L 151.678328 168.284623 
L 152.114647 167.479143 
L 152.288166 167.170251 
L 152.844478 166.055879 
L 153.117902 165.428642 
L 153.339626 164.941508 
L 153.777382 163.827136 
L 154.121156 162.790726 
L 154.148316 162.712764 
L 154.467842 161.598392 
L 154.720295 160.48402 
L 154.907271 159.369648 
L 155.029194 158.255276 
L 155.085395 157.140905 
L 155.074168 156.026533 
L 154.992805 154.912161 
L 154.837611 153.797789 
L 154.603903 152.683417 
L 154.28599 151.569045 
L 154.121156 151.106694 
L 153.879819 150.454673 
L 153.374675 149.340302 
L 153.117902 148.860521 
L 152.75658 148.22593 
L 152.114647 147.261276 
L 152.006607 147.111558 
L 151.111392 146.01834 
L 151.092195 145.997186 
L 150.108137 145.018287 
L 149.953379 144.882814 
L 149.104882 144.198458 
L 148.480655 143.768442 
L 148.101627 143.523524 
L 147.098373 142.971063 
L 146.395355 142.65407 
L 146.095118 142.524112 
L 145.091863 142.167157 
L 144.088608 141.893382 
L 143.085353 141.694078 
L 142.082098 141.561713 
L 141.781542 141.539698 
L 141.078844 141.488086 
L 140.075589 141.47063 
L 139.072334 141.506156 
L 138.682977 141.539698 
L 138.069079 141.589374 
L 137.065824 141.716332 
L 136.062569 141.886866 
L 135.059315 142.10027 
L 134.05606 142.356661 
L 133.06247 142.65407 
L 133.052805 142.656803 
L 132.04955 142.98238 
L 131.046295 143.351732 
L 130.04304 143.767962 
L 130.041992 143.768442 
L 129.039786 144.205212 
L 128.036531 144.69282 
L 127.680262 144.882814 
L 127.033276 145.212938 
L 126.030021 145.777208 
L 125.671173 145.997186 
L 125.026766 146.377486 
L 124.023511 147.028407 
L 123.904346 147.111558 
L 123.020257 147.709824 
L 122.323391 148.22593 
L 122.017002 148.447068 
L 121.013747 149.231305 
L 120.88336 149.340302 
L 120.010492 150.058024 
L 119.563475 150.454673 
L 119.007237 150.943281 
L 118.343731 151.569045 
L 118.003982 151.888515 
L 117.212261 152.683417 
L 117.000728 152.896825 
L 116.159357 153.797789 
L 115.997473 153.973456 
L 115.177289 154.912161 
L 114.994218 155.126432 
L 114.260152 156.026533 
L 113.990963 156.367403 
L 113.403754 157.140905 
L 112.987708 157.712814 
L 112.60553 158.255276 
L 111.984453 159.185557 
L 111.864504 159.369648 
L 111.172787 160.48402 
L 110.981199 160.813127 
L 110.530321 161.598392 
L 109.977944 162.64867 
L 109.944412 162.712764 
L 109.396689 163.827136 
L 108.974689 164.786745 
L 108.906173 164.941508 
L 108.453488 166.055879 
L 108.057389 167.170251 
L 107.971434 167.443456 
L 107.700552 168.284623 
L 107.393701 169.398995 
L 107.139639 170.513367 
L 106.968179 171.455782 
L 106.935576 171.627739 
L 106.777026 172.742111 
L 106.674583 173.856482 
L 106.630178 174.970854 
L 106.647095 176.085226 
L 106.730158 177.199598 
L 106.885969 178.31397 
L 106.968179 178.709348 
L 107.118139 179.428342 
L 107.438752 180.542714 
L 107.865558 181.657085 
L 107.971434 181.882213 
L 108.411564 182.771457 
L 108.974689 183.686674 
L 109.107216 183.885829 
L 109.977944 184.984985 
L 109.99137 185.000201 
L 110.981199 185.978287 
L 111.139906 186.114573 
L 111.984453 186.768325 
L 112.694726 187.228945 
L 112.987708 187.405503 
L 113.990963 187.918403 
L 114.994218 188.326196 
L 115.045902 188.343317 
z
" clip-path="url(#p8d79472797)" style="fill: #f5ad91; fill-opacity: 0.5"/>
   </g>
   <g id="PathCollection_6"/>
   <g id="PathCollection_7"/>
   <g id="PathCollection_8"/>
   <g id="PathCollection_9">
    <path d="M 119.523632 181.65904 
L 119.696476 181.684604 
L 119.869319 181.7017 
L 120.042163 181.712255 
L 120.215007 181.717787 
L 120.387851 181.71948 
L 120.560695 181.718249 
L 120.733538 181.714788 
L 120.906382 181.709596 
L 121.079226 181.703002 
L 121.25207 181.695178 
L 121.424913 181.68614 
L 121.597757 181.675753 
L 121.770601 181.66372 
L 121.884133 181.654516 
L 121.943445 181.650187 
L 122.116289 181.635406 
L 122.289132 181.617543 
L 122.461976 181.595744 
L 122.63482 181.569038 
L 122.807664 181.536366 
L 122.980508 181.496619 
L 122.990129 181.494052 
L 123.153351 181.454065 
L 123.326195 181.403457 
L 123.499039 181.3435 
L 123.524458 181.333588 
L 123.671883 181.280282 
L 123.844726 181.208195 
L 123.920175 181.173124 
L 124.01757 181.130903 
L 124.190414 181.047466 
L 124.256681 181.01266 
L 124.363258 180.960176 
L 124.536102 180.866888 
L 124.561997 180.852196 
L 124.708945 180.773618 
L 124.850682 180.691732 
L 124.881789 180.674761 
L 125.054633 180.576921 
L 125.131769 180.531268 
L 125.227477 180.477479 
L 125.400321 180.375496 
L 125.408294 180.370804 
L 125.573164 180.278122 
L 125.689164 180.21034 
L 125.746008 180.178522 
L 125.918852 180.080779 
L 125.973598 180.049876 
L 126.091696 179.985583 
L 126.263114 179.889412 
L 126.264539 179.888639 
L 126.437383 179.798347 
L 126.566545 179.728948 
L 126.610227 179.706081 
L 126.783071 179.617329 
L 126.877535 179.568485 
L 126.955915 179.528715 
L 127.128758 179.440439 
L 127.192345 179.408021 
L 127.301602 179.352976 
L 127.474446 179.261954 
L 127.501819 179.247557 
L 127.64729 179.171439 
L 127.796053 179.087093 
L 127.820134 179.073481 
L 127.992977 178.972411 
L 128.065525 178.926629 
L 128.165821 178.863177 
L 128.305987 178.766165 
L 128.338665 178.743469 
L 128.511509 178.61389 
L 128.521783 178.605701 
L 128.684352 178.475202 
L 128.719048 178.445237 
L 128.857196 178.325111 
L 128.900829 178.284773 
L 129.03004 178.164562 
L 129.071232 178.124309 
L 129.202884 177.994899 
L 129.233324 177.963845 
L 129.375728 177.817734 
L 129.38936 177.803381 
L 129.541713 177.642917 
L 129.548571 177.635722 
L 129.692662 177.482453 
L 129.721415 177.451622 
L 129.841662 177.321989 
L 129.894259 177.264672 
L 129.989063 177.161525 
L 130.067103 177.075389 
L 130.134915 177.001061 
L 130.239947 176.883756 
L 130.279003 176.840597 
L 130.41279 176.689179 
L 130.420883 176.680133 
L 130.563247 176.519669 
L 130.585634 176.493768 
L 130.703475 176.359205 
L 130.758478 176.293917 
L 130.839687 176.198741 
L 130.931322 176.086438 
L 130.971079 176.038277 
L 131.097871 175.877813 
L 131.104166 175.869717 
L 131.224201 175.71735 
L 131.277009 175.646371 
L 131.344451 175.556886 
L 131.449853 175.40823 
L 131.458336 175.396422 
L 131.572583 175.235958 
L 131.622697 175.161486 
L 131.681674 175.075494 
L 131.78586 174.91503 
L 131.795541 174.899976 
L 131.891547 174.754566 
L 131.968384 174.630248 
L 131.991397 174.594102 
L 132.092137 174.433638 
L 132.141228 174.351814 
L 132.190261 174.273174 
L 132.286653 174.11271 
L 132.314072 174.065932 
L 132.383957 173.952246 
L 132.47727 173.791782 
L 132.486916 173.774996 
L 132.574271 173.631318 
L 132.65976 173.48116 
L 132.665994 173.470854 
L 132.762055 173.31039 
L 132.832603 173.184722 
L 132.853525 173.149926 
L 132.947383 172.989462 
L 133.005447 172.884119 
L 133.038215 172.828998 
L 133.12972 172.668534 
L 133.178291 172.578249 
L 133.219245 172.50807 
L 133.308139 172.347606 
L 133.351135 172.265218 
L 133.39552 172.187142 
L 133.481596 172.026679 
L 133.523979 171.942588 
L 133.566015 171.866215 
L 133.649282 171.705751 
L 133.696822 171.608064 
L 133.730202 171.545287 
L 133.811052 171.384823 
L 133.869666 171.26085 
L 133.888487 171.224359 
L 133.967803 171.063895 
L 134.04251 170.903431 
L 134.04251 170.903431 
L 134.121636 170.742967 
L 134.197102 170.582503 
L 134.215354 170.542858 
L 134.275551 170.422039 
L 134.353179 170.261575 
L 134.388197 170.187889 
L 134.432569 170.101111 
L 134.513223 169.940647 
L 134.561041 169.843614 
L 134.594504 169.780183 
L 134.67801 169.619719 
L 134.733885 169.509235 
L 134.760856 169.459255 
L 134.845776 169.298791 
L 134.906729 169.178328 
L 134.928313 169.138327 
L 135.012094 168.977863 
L 135.079573 168.839259 
L 135.090948 168.817399 
L 135.170368 168.656935 
L 135.242108 168.496471 
L 135.252416 168.47148 
L 135.312524 168.336007 
L 135.375258 168.175544 
L 135.42526 168.026791 
L 135.429529 168.01508 
L 135.480655 167.854616 
L 135.522373 167.694152 
L 135.555221 167.533688 
L 135.579852 167.373224 
L 135.596951 167.21276 
L 135.598104 167.195151 
L 135.608402 167.052296 
L 135.612773 166.891832 
L 135.610467 166.731368 
L 135.601911 166.570904 
L 135.598104 166.529415 
L 135.588492 166.41044 
L 135.570055 166.249976 
L 135.546036 166.089512 
L 135.516153 165.929048 
L 135.480001 165.768584 
L 135.437081 165.60812 
L 135.42526 165.569686 
L 135.389131 165.447656 
L 135.334022 165.287192 
L 135.270405 165.126728 
L 135.252416 165.08573 
L 135.199605 164.966264 
L 135.120057 164.8058 
L 135.079573 164.730871 
L 135.031721 164.645336 
L 134.934757 164.484872 
L 134.906729 164.440681 
L 134.828938 164.324409 
L 134.733885 164.188972 
L 134.715069 164.163945 
L 134.592771 164.003481 
L 134.561041 163.962217 
L 134.461573 163.843017 
L 134.388197 163.755314 
L 134.321 163.682553 
L 134.215354 163.567569 
L 134.168326 163.522089 
L 134.04251 163.399356 
L 133.998074 163.361625 
L 133.869666 163.251414 
L 133.801143 163.201161 
L 133.696822 163.123531 
L 133.565192 163.040697 
L 133.523979 163.014166 
L 133.351135 162.918714 
L 133.271053 162.880233 
L 133.178291 162.833539 
L 133.005447 162.75386 
L 132.929146 162.719769 
L 132.832603 162.673331 
L 132.65976 162.586645 
L 132.609978 162.559305 
L 132.486916 162.485197 
L 132.360557 162.398841 
L 132.314072 162.363991 
L 132.166438 162.238377 
L 132.141228 162.215221 
L 132.006977 162.077913 
L 131.968384 162.03677 
L 131.864898 161.917449 
L 131.795541 161.838119 
L 131.727687 161.756985 
L 131.622697 161.638765 
L 131.585462 161.596521 
L 131.449853 161.457498 
L 131.428244 161.436057 
L 131.277009 161.303601 
L 131.242429 161.275593 
L 131.104166 161.177318 
L 131.004211 161.115129 
L 130.931322 161.075018 
L 130.758478 160.994238 
L 130.652285 160.954665 
L 130.585634 160.932088 
L 130.41279 160.887058 
L 130.239947 160.857167 
L 130.067103 160.841415 
L 129.894259 160.838815 
L 129.721415 160.848443 
L 129.548571 160.869486 
L 129.375728 160.901287 
L 129.202884 160.943378 
L 129.165015 160.954665 
L 129.03004 160.993854 
L 128.857196 161.052643 
L 128.696608 161.115129 
L 128.684352 161.119808 
L 128.511509 161.191405 
L 128.338665 161.270093 
L 128.326915 161.275593 
L 128.165821 161.350085 
L 127.992977 161.434803 
L 127.990354 161.436057 
L 127.820134 161.516289 
L 127.653247 161.596521 
L 127.64729 161.599323 
L 127.474446 161.673921 
L 127.301602 161.74548 
L 127.268516 161.756985 
L 127.128758 161.80376 
L 126.955915 161.850144 
L 126.783071 161.881031 
L 126.610227 161.889305 
L 126.437383 161.865752 
L 126.264539 161.800426 
L 126.194155 161.756985 
L 126.091696 161.669978 
L 126.022634 161.596521 
L 125.918852 161.460179 
L 125.900875 161.436057 
L 125.784648 161.275593 
L 125.746008 161.22685 
L 125.63114 161.115129 
L 125.573164 161.070517 
L 125.400321 160.992194 
L 125.227477 160.96474 
L 125.054633 160.97132 
L 124.881789 161.000551 
L 124.708945 161.045308 
L 124.536102 161.101384 
L 124.501664 161.115129 
L 124.363258 161.1667 
L 124.190414 161.238659 
L 124.1108 161.275593 
L 124.01757 161.316177 
L 123.844726 161.398284 
L 123.77133 161.436057 
L 123.671883 161.484431 
L 123.499039 161.574563 
L 123.459809 161.596521 
L 123.326195 161.667845 
L 123.169437 161.756985 
L 123.153351 161.765747 
L 122.980508 161.866468 
L 122.898319 161.917449 
L 122.807664 161.971956 
L 122.642684 162.077913 
L 122.63482 162.082841 
L 122.461976 162.197744 
L 122.40446 162.238377 
L 122.289132 162.318993 
L 122.181751 162.398841 
L 122.116289 162.447411 
L 121.974285 162.559305 
L 121.943445 162.583769 
L 121.781496 162.719769 
L 121.770601 162.729066 
L 121.602489 162.880233 
L 121.597757 162.884598 
L 121.436226 163.040697 
L 121.424913 163.052023 
L 121.281684 163.201161 
L 121.25207 163.23342 
L 121.137976 163.361625 
L 121.079226 163.431338 
L 121.00442 163.522089 
L 120.906382 163.648803 
L 120.880595 163.682553 
L 120.764524 163.843017 
L 120.733538 163.888548 
L 120.655376 164.003481 
L 120.560695 164.154322 
L 120.554593 164.163945 
L 120.457397 164.324409 
L 120.387851 164.449085 
L 120.367418 164.484872 
L 120.280384 164.645336 
L 120.215007 164.77546 
L 120.199195 164.8058 
L 120.119299 164.966264 
L 120.04521 165.126728 
L 120.042163 165.13359 
L 119.970302 165.287192 
L 119.900035 165.447656 
L 119.869319 165.52133 
L 119.830738 165.60812 
L 119.762854 165.768584 
L 119.69895 165.929048 
L 119.696476 165.935529 
L 119.632985 166.089512 
L 119.570763 166.249976 
L 119.523632 166.37928 
L 119.511266 166.41044 
L 119.451197 166.570904 
L 119.395537 166.731368 
L 119.350788 166.871627 
L 119.34372 166.891832 
L 119.292341 167.052296 
L 119.246317 167.21276 
L 119.205809 167.373224 
L 119.177944 167.501248 
L 119.17017 167.533688 
L 119.137731 167.694152 
L 119.111414 167.854616 
L 119.090989 168.01508 
L 119.076068 168.175544 
L 119.066102 168.336007 
L 119.060404 168.496471 
L 119.05818 168.656935 
L 119.058575 168.817399 
L 119.060724 168.977863 
L 119.063791 169.138327 
L 119.067 169.298791 
L 119.069656 169.459255 
L 119.071151 169.619719 
L 119.070964 169.780183 
L 119.068654 169.940647 
L 119.063862 170.101111 
L 119.056299 170.261575 
L 119.045756 170.422039 
L 119.032102 170.582503 
L 119.015292 170.742967 
L 119.0051 170.823001 
L 118.993613 170.903431 
L 118.966416 171.063895 
L 118.935711 171.224359 
L 118.901813 171.384823 
L 118.865116 171.545287 
L 118.832257 171.679091 
L 118.824829 171.705751 
L 118.775598 171.866215 
L 118.724507 172.026679 
L 118.672163 172.187142 
L 118.659413 172.224118 
L 118.610817 172.347606 
L 118.546588 172.50807 
L 118.486569 172.658322 
L 118.481908 172.668534 
L 118.405944 172.828998 
L 118.331661 172.989462 
L 118.313725 173.027852 
L 118.248573 173.149926 
L 118.165105 173.31039 
L 118.140881 173.357441 
L 118.074275 173.470854 
L 117.983637 173.631318 
L 117.968038 173.659539 
L 117.884747 173.791782 
L 117.795194 173.942498 
L 117.788589 173.952246 
L 117.683621 174.11271 
L 117.62235 174.213216 
L 117.580523 174.273174 
L 117.476137 174.433638 
L 117.449506 174.477843 
L 117.368746 174.594102 
L 117.276663 174.74134 
L 117.266992 174.754566 
L 117.160564 174.91503 
L 117.103819 175.012879 
L 117.060512 175.075494 
L 116.964703 175.235958 
L 116.930975 175.302911 
L 116.873195 175.396422 
L 116.792831 175.556886 
L 116.758131 175.64545 
L 116.72221 175.71735 
L 116.663303 175.877813 
L 116.624562 176.038277 
L 116.603521 176.198741 
L 116.598201 176.359205 
L 116.607105 176.519669 
L 116.629203 176.680133 
L 116.66393 176.840597 
L 116.711188 177.001061 
L 116.758131 177.126939 
L 116.768911 177.161525 
L 116.829272 177.321989 
L 116.901806 177.482453 
L 116.930975 177.538681 
L 116.977555 177.642917 
L 117.058972 177.803381 
L 117.103819 177.883127 
L 117.142567 177.963845 
L 117.225544 178.124309 
L 117.276663 178.217416 
L 117.307668 178.284773 
L 117.383574 178.445237 
L 117.449506 178.58155 
L 117.459235 178.605701 
L 117.523197 178.766165 
L 117.586805 178.926629 
L 117.62235 179.018116 
L 117.644991 179.087093 
L 117.696539 179.247557 
L 117.747632 179.408021 
L 117.795194 179.557797 
L 117.798185 179.568485 
L 117.843056 179.728948 
L 117.889874 179.889412 
L 117.93977 180.049876 
L 117.968038 180.134934 
L 117.991787 180.21034 
L 118.047609 180.370804 
L 118.112205 180.531268 
L 118.140881 180.594336 
L 118.186076 180.691732 
L 118.274137 180.852196 
L 118.313725 180.914237 
L 118.382138 181.01266 
L 118.486569 181.138705 
L 118.51925 181.173124 
L 118.659413 181.300755 
L 118.70311 181.333588 
L 118.832257 181.420367 
L 118.974006 181.494052 
L 119.0051 181.509022 
L 119.177944 181.575688 
L 119.350788 181.62421 
L 119.50104 181.654516 
z
M 122.32486 177.321989 
L 122.289132 177.308935 
L 122.116289 177.22859 
L 122.003377 177.161525 
L 121.943445 177.123829 
L 121.783776 177.001061 
L 121.770601 176.99 
L 121.617946 176.840597 
L 121.597757 176.818286 
L 121.486136 176.680133 
L 121.424913 176.591307 
L 121.379242 176.519669 
L 121.291819 176.359205 
L 121.25207 176.271628 
L 121.220069 176.198741 
L 121.160921 176.038277 
L 121.114098 175.877813 
L 121.079226 175.723918 
L 121.077707 175.71735 
L 121.048082 175.556886 
L 121.026787 175.396422 
L 121.012887 175.235958 
L 121.00563 175.075494 
L 121.004421 174.91503 
L 121.008803 174.754566 
L 121.018439 174.594102 
L 121.033105 174.433638 
L 121.05267 174.273174 
L 121.077097 174.11271 
L 121.079226 174.100935 
L 121.103151 173.952246 
L 121.133204 173.791782 
L 121.167661 173.631318 
L 121.206748 173.470854 
L 121.250755 173.31039 
L 121.25207 173.305964 
L 121.294027 173.149926 
L 121.341925 172.989462 
L 121.395042 172.828998 
L 121.424913 172.745691 
L 121.450283 172.668534 
L 121.50717 172.50807 
L 121.569914 172.347606 
L 121.597757 172.280896 
L 121.634095 172.187142 
L 121.701035 172.026679 
L 121.770601 171.874781 
L 121.774282 171.866215 
L 121.845884 171.705751 
L 121.924706 171.545287 
L 121.943445 171.508727 
L 122.003737 171.384823 
L 122.088376 171.224359 
L 122.116289 171.17378 
L 122.17442 171.063895 
L 122.265775 170.903431 
L 122.289132 170.863898 
L 122.358273 170.742967 
L 122.457434 170.582503 
L 122.461976 170.575286 
L 122.556169 170.422039 
L 122.63482 170.302848 
L 122.661634 170.261575 
L 122.769587 170.101111 
L 122.807664 170.046665 
L 122.881345 169.940647 
L 122.980508 169.805445 
L 122.999077 169.780183 
L 123.119772 169.619719 
L 123.153351 169.576411 
L 123.245272 169.459255 
L 123.326195 169.359949 
L 123.377089 169.298791 
L 123.499039 169.15671 
L 123.515307 169.138327 
L 123.659682 168.977863 
L 123.671883 168.964463 
L 123.811467 168.817399 
L 123.844726 168.782928 
L 123.972818 168.656935 
L 124.01757 168.613347 
L 124.145465 168.496471 
L 124.190414 168.455529 
L 124.331994 168.336007 
L 124.363258 168.309528 
L 124.536102 168.175618 
L 124.536207 168.175544 
L 124.708945 168.050869 
L 124.764747 168.01508 
L 124.881789 167.938277 
L 125.027735 167.854616 
L 125.054633 167.838735 
L 125.227477 167.748193 
L 125.349211 167.694152 
L 125.400321 167.670473 
L 125.573164 167.602012 
L 125.746008 167.546379 
L 125.794768 167.533688 
L 125.918852 167.499322 
L 126.091696 167.462601 
L 126.264539 167.436498 
L 126.437383 167.420316 
L 126.610227 167.413557 
L 126.783071 167.415908 
L 126.955915 167.427248 
L 127.128758 167.447644 
L 127.301602 167.477377 
L 127.474446 167.516959 
L 127.533541 167.533688 
L 127.64729 167.56484 
L 127.820134 167.622712 
L 127.992977 167.693296 
L 127.99482 167.694152 
L 128.165821 167.773693 
L 128.311424 167.854616 
L 128.338665 167.870065 
L 128.511509 167.981983 
L 128.55647 168.01508 
L 128.684352 168.11417 
L 128.754656 168.175544 
L 128.857196 168.271883 
L 128.919069 168.336007 
L 129.03004 168.462792 
L 129.057341 168.496471 
L 129.174887 168.656935 
L 129.202884 168.699984 
L 129.275733 168.817399 
L 129.360944 168.977863 
L 129.375728 169.009496 
L 129.434918 169.138327 
L 129.496983 169.298791 
L 129.547918 169.459255 
L 129.548571 169.46167 
L 129.592232 169.619719 
L 129.627545 169.780183 
L 129.654739 169.940647 
L 129.674588 170.101111 
L 129.687731 170.261575 
L 129.694682 170.422039 
L 129.695842 170.582503 
L 129.691506 170.742967 
L 129.681871 170.903431 
L 129.667039 171.063895 
L 129.647019 171.224359 
L 129.621729 171.384823 
L 129.590991 171.545287 
L 129.554529 171.705751 
L 129.548571 171.72863 
L 129.51619 171.866215 
L 129.472899 172.026679 
L 129.423466 172.187142 
L 129.375728 172.324127 
L 129.368244 172.347606 
L 129.312095 172.50807 
L 129.248727 172.668534 
L 129.202884 172.773168 
L 129.18023 172.828998 
L 129.109152 172.989462 
L 129.03004 173.147948 
L 129.029116 173.149926 
L 128.949298 173.31039 
L 128.859151 173.470854 
L 128.857196 173.47415 
L 128.768815 173.631318 
L 128.684352 173.765768 
L 128.66875 173.791782 
L 128.566197 173.952246 
L 128.511509 174.030839 
L 128.456546 174.11271 
L 128.338665 174.273174 
L 128.338665 174.273174 
L 128.218956 174.433638 
L 128.165821 174.499594 
L 128.091064 174.594102 
L 127.992977 174.709831 
L 127.955483 174.754566 
L 127.820134 174.906471 
L 127.812538 174.91503 
L 127.664039 175.075494 
L 127.64729 175.092844 
L 127.508228 175.235958 
L 127.474446 175.269358 
L 127.344128 175.396422 
L 127.301602 175.436572 
L 127.171413 175.556886 
L 127.128758 175.59536 
L 126.989526 175.71735 
L 126.955915 175.746321 
L 126.797632 175.877813 
L 126.783071 175.889809 
L 126.610227 176.027177 
L 126.595652 176.038277 
L 126.437383 176.159216 
L 126.38247 176.198741 
L 126.264539 176.284595 
L 126.154794 176.359205 
L 126.091696 176.402942 
L 125.918852 176.514339 
L 125.910128 176.519669 
L 125.746008 176.623189 
L 125.646787 176.680133 
L 125.573164 176.724099 
L 125.400321 176.818768 
L 125.357052 176.840597 
L 125.227477 176.909487 
L 125.054633 176.99137 
L 125.032303 177.001061 
L 124.881789 177.070782 
L 124.708945 177.141099 
L 124.652647 177.161525 
L 124.536102 177.207235 
L 124.363258 177.266359 
L 124.190414 177.316828 
L 124.169642 177.321989 
L 124.01757 177.36356 
L 123.844726 177.402121 
L 123.671883 177.432198 
L 123.499039 177.453835 
L 123.326195 177.466812 
L 123.153351 177.470617 
L 122.980508 177.464418 
L 122.807664 177.447007 
L 122.63482 177.416728 
L 122.461976 177.371383 
z
" clip-path="url(#p8d79472797)" style="fill: #63d563; fill-opacity: 0.5"/>
    <path d="M 112.60988 178.350048 
L 112.782724 178.37766 
L 112.955568 178.367888 
L 113.128412 178.330099 
L 113.25778 178.284773 
L 113.301255 178.269725 
L 113.474099 178.190352 
L 113.593502 178.124309 
L 113.646943 178.094591 
L 113.819787 177.984028 
L 113.848333 177.963845 
L 113.992631 177.859381 
L 114.06411 177.803381 
L 114.165474 177.721064 
L 114.256397 177.642917 
L 114.338318 177.568886 
L 114.430666 177.482453 
L 114.511162 177.401905 
L 114.590024 177.321989 
L 114.684006 177.218113 
L 114.735824 177.161525 
L 114.85685 177.013777 
L 114.867698 177.001061 
L 114.988235 176.840597 
L 115.029693 176.775162 
L 115.094441 176.680133 
L 115.181812 176.519669 
L 115.202537 176.469408 
L 115.253399 176.359205 
L 115.301744 176.198741 
L 115.32433 176.038277 
L 115.320639 175.877813 
L 115.28874 175.71735 
L 115.225134 175.556886 
L 115.202537 175.519721 
L 115.12718 175.396422 
L 115.029693 175.285446 
L 114.980676 175.235958 
L 114.85685 175.141935 
L 114.743197 175.075494 
L 114.684006 175.04775 
L 114.511162 174.992482 
L 114.338318 174.965526 
L 114.165474 174.964244 
L 113.992631 174.986018 
L 113.819787 175.028696 
L 113.690611 175.075494 
L 113.646943 175.091746 
L 113.474099 175.176417 
L 113.374508 175.235958 
L 113.301255 175.281518 
L 113.144164 175.396422 
L 113.128412 175.408547 
L 112.960174 175.556886 
L 112.955568 175.561208 
L 112.806946 175.71735 
L 112.782724 175.744739 
L 112.675418 175.877813 
L 112.60988 175.966246 
L 112.56029 176.038277 
L 112.460238 176.198741 
L 112.437037 176.24049 
L 112.374826 176.359205 
L 112.300885 176.519669 
L 112.264193 176.612363 
L 112.238541 176.680133 
L 112.188804 176.840597 
L 112.149433 177.001061 
L 112.121004 177.161525 
L 112.104546 177.321989 
L 112.101643 177.482453 
L 112.114558 177.642917 
L 112.14644 177.803381 
L 112.201601 177.963845 
L 112.264193 178.086113 
L 112.292366 178.124309 
L 112.437037 178.268386 
L 112.466556 178.284773 
z
" clip-path="url(#p8d79472797)" style="fill: #63d563; fill-opacity: 0.5"/>
   </g>
   <g id="PathCollection_10">
    <path d="M 122.461976 177.371383 
L 122.63482 177.416728 
L 122.807664 177.447007 
L 122.980508 177.464418 
L 123.153351 177.470617 
L 123.326195 177.466812 
L 123.499039 177.453835 
L 123.671883 177.432198 
L 123.844726 177.402121 
L 124.01757 177.36356 
L 124.169642 177.321989 
L 124.190414 177.316828 
L 124.363258 177.266359 
L 124.536102 177.207235 
L 124.652647 177.161525 
L 124.708945 177.141099 
L 124.881789 177.070782 
L 125.032303 177.001061 
L 125.054633 176.99137 
L 125.227477 176.909487 
L 125.357052 176.840597 
L 125.400321 176.818768 
L 125.573164 176.724099 
L 125.646787 176.680133 
L 125.746008 176.623189 
L 125.910128 176.519669 
L 125.918852 176.514339 
L 126.091696 176.402942 
L 126.154794 176.359205 
L 126.264539 176.284595 
L 126.38247 176.198741 
L 126.437383 176.159216 
L 126.595652 176.038277 
L 126.610227 176.027177 
L 126.783071 175.889809 
L 126.797632 175.877813 
L 126.955915 175.746321 
L 126.989526 175.71735 
L 127.128758 175.59536 
L 127.171413 175.556886 
L 127.301602 175.436572 
L 127.344128 175.396422 
L 127.474446 175.269358 
L 127.508228 175.235958 
L 127.64729 175.092844 
L 127.664039 175.075494 
L 127.812538 174.91503 
L 127.820134 174.906471 
L 127.955483 174.754566 
L 127.992977 174.709831 
L 128.091064 174.594102 
L 128.165821 174.499594 
L 128.218956 174.433638 
L 128.338665 174.273174 
L 128.338665 174.273174 
L 128.456546 174.11271 
L 128.511509 174.030839 
L 128.566197 173.952246 
L 128.66875 173.791782 
L 128.684352 173.765768 
L 128.768815 173.631318 
L 128.857196 173.47415 
L 128.859151 173.470854 
L 128.949298 173.31039 
L 129.029116 173.149926 
L 129.03004 173.147948 
L 129.109152 172.989462 
L 129.18023 172.828998 
L 129.202884 172.773168 
L 129.248727 172.668534 
L 129.312095 172.50807 
L 129.368244 172.347606 
L 129.375728 172.324127 
L 129.423466 172.187142 
L 129.472899 172.026679 
L 129.51619 171.866215 
L 129.548571 171.72863 
L 129.554529 171.705751 
L 129.590991 171.545287 
L 129.621729 171.384823 
L 129.647019 171.224359 
L 129.667039 171.063895 
L 129.681871 170.903431 
L 129.691506 170.742967 
L 129.695842 170.582503 
L 129.694682 170.422039 
L 129.687731 170.261575 
L 129.674588 170.101111 
L 129.654739 169.940647 
L 129.627545 169.780183 
L 129.592232 169.619719 
L 129.548571 169.46167 
L 129.547918 169.459255 
L 129.496983 169.298791 
L 129.434918 169.138327 
L 129.375728 169.009496 
L 129.360944 168.977863 
L 129.275733 168.817399 
L 129.202884 168.699984 
L 129.174887 168.656935 
L 129.057341 168.496471 
L 129.03004 168.462792 
L 128.919069 168.336007 
L 128.857196 168.271883 
L 128.754656 168.175544 
L 128.684352 168.11417 
L 128.55647 168.01508 
L 128.511509 167.981983 
L 128.338665 167.870065 
L 128.311424 167.854616 
L 128.165821 167.773693 
L 127.99482 167.694152 
L 127.992977 167.693296 
L 127.820134 167.622712 
L 127.64729 167.56484 
L 127.533541 167.533688 
L 127.474446 167.516959 
L 127.301602 167.477377 
L 127.128758 167.447644 
L 126.955915 167.427248 
L 126.783071 167.415908 
L 126.610227 167.413557 
L 126.437383 167.420316 
L 126.264539 167.436498 
L 126.091696 167.462601 
L 125.918852 167.499322 
L 125.794768 167.533688 
L 125.746008 167.546379 
L 125.573164 167.602012 
L 125.400321 167.670473 
L 125.349211 167.694152 
L 125.227477 167.748193 
L 125.054633 167.838735 
L 125.027735 167.854616 
L 124.881789 167.938277 
L 124.764747 168.01508 
L 124.708945 168.050869 
L 124.536207 168.175544 
L 124.536102 168.175618 
L 124.363258 168.309528 
L 124.331994 168.336007 
L 124.190414 168.455529 
L 124.145465 168.496471 
L 124.01757 168.613347 
L 123.972818 168.656935 
L 123.844726 168.782928 
L 123.811467 168.817399 
L 123.671883 168.964463 
L 123.659682 168.977863 
L 123.515307 169.138327 
L 123.499039 169.15671 
L 123.377089 169.298791 
L 123.326195 169.359949 
L 123.245272 169.459255 
L 123.153351 169.576411 
L 123.119772 169.619719 
L 122.999077 169.780183 
L 122.980508 169.805445 
L 122.881345 169.940647 
L 122.807664 170.046665 
L 122.769587 170.101111 
L 122.661634 170.261575 
L 122.63482 170.302848 
L 122.556169 170.422039 
L 122.461976 170.575286 
L 122.457434 170.582503 
L 122.358273 170.742967 
L 122.289132 170.863898 
L 122.265775 170.903431 
L 122.17442 171.063895 
L 122.116289 171.17378 
L 122.088376 171.224359 
L 122.003737 171.384823 
L 121.943445 171.508727 
L 121.924706 171.545287 
L 121.845884 171.705751 
L 121.774282 171.866215 
L 121.770601 171.874781 
L 121.701035 172.026679 
L 121.634095 172.187142 
L 121.597757 172.280896 
L 121.569914 172.347606 
L 121.50717 172.50807 
L 121.450283 172.668534 
L 121.424913 172.745691 
L 121.395042 172.828998 
L 121.341925 172.989462 
L 121.294027 173.149926 
L 121.25207 173.305964 
L 121.250755 173.31039 
L 121.206748 173.470854 
L 121.167661 173.631318 
L 121.133204 173.791782 
L 121.103151 173.952246 
L 121.079226 174.100935 
L 121.077097 174.11271 
L 121.05267 174.273174 
L 121.033105 174.433638 
L 121.018439 174.594102 
L 121.008803 174.754566 
L 121.004421 174.91503 
L 121.00563 175.075494 
L 121.012887 175.235958 
L 121.026787 175.396422 
L 121.048082 175.556886 
L 121.077707 175.71735 
L 121.079226 175.723918 
L 121.114098 175.877813 
L 121.160921 176.038277 
L 121.220069 176.198741 
L 121.25207 176.271628 
L 121.291819 176.359205 
L 121.379242 176.519669 
L 121.424913 176.591307 
L 121.486136 176.680133 
L 121.597757 176.818286 
L 121.617946 176.840597 
L 121.770601 176.99 
L 121.783776 177.001061 
L 121.943445 177.123829 
L 122.003377 177.161525 
L 122.116289 177.22859 
L 122.289132 177.308935 
L 122.32486 177.321989 
z
M 123.509897 175.877813 
L 123.499039 175.875802 
L 123.326195 175.824817 
L 123.153351 175.748568 
L 123.099746 175.71735 
L 122.980508 175.639717 
L 122.881027 175.556886 
L 122.807664 175.485536 
L 122.731071 175.396422 
L 122.63482 175.258715 
L 122.620809 175.235958 
L 122.53896 175.075494 
L 122.477457 174.91503 
L 122.461976 174.861771 
L 122.432426 174.754566 
L 122.401035 174.594102 
L 122.381441 174.433638 
L 122.372144 174.273174 
L 122.371994 174.11271 
L 122.380126 173.952246 
L 122.395917 173.791782 
L 122.418949 173.631318 
L 122.448988 173.470854 
L 122.461976 173.414255 
L 122.484554 173.31039 
L 122.525675 173.149926 
L 122.573192 172.989462 
L 122.627365 172.828998 
L 122.63482 172.809004 
L 122.685221 172.668534 
L 122.749247 172.50807 
L 122.807664 172.37559 
L 122.819681 172.347606 
L 122.893752 172.187142 
L 122.975335 172.026679 
L 122.980508 172.017043 
L 123.060421 171.866215 
L 123.153351 171.705751 
L 123.153351 171.705751 
L 123.250097 171.545287 
L 123.326195 171.428112 
L 123.354562 171.384823 
L 123.464993 171.224359 
L 123.499039 171.177135 
L 123.582393 171.063895 
L 123.671883 170.948457 
L 123.707919 170.903431 
L 123.841814 170.742967 
L 123.844726 170.739556 
L 123.984849 170.582503 
L 124.01757 170.54695 
L 124.139175 170.422039 
L 124.190414 170.370587 
L 124.306723 170.261575 
L 124.363258 170.209349 
L 124.490504 170.101111 
L 124.536102 170.062572 
L 124.695084 169.940647 
L 124.708945 169.93 
L 124.881789 169.810066 
L 124.930724 169.780183 
L 125.054633 169.703375 
L 125.211764 169.619719 
L 125.227477 169.611162 
L 125.400321 169.530375 
L 125.573164 169.464475 
L 125.590382 169.459255 
L 125.746008 169.4101 
L 125.918852 169.369713 
L 126.091696 169.343206 
L 126.264539 169.330574 
L 126.437383 169.3322 
L 126.610227 169.348889 
L 126.783071 169.381923 
L 126.955915 169.433134 
L 127.021036 169.459255 
L 127.128758 169.504349 
L 127.301602 169.599567 
L 127.331515 169.619719 
L 127.474446 169.724725 
L 127.53712 169.780183 
L 127.64729 169.890156 
L 127.691058 169.940647 
L 127.810462 170.101111 
L 127.820134 170.1163 
L 127.903964 170.261575 
L 127.977821 170.422039 
L 127.992977 170.46264 
L 128.035281 170.582503 
L 128.078711 170.742967 
L 128.109741 170.903431 
L 128.129734 171.063895 
L 128.139788 171.224359 
L 128.140764 171.384823 
L 128.133308 171.545287 
L 128.117874 171.705751 
L 128.094732 171.866215 
L 128.063981 172.026679 
L 128.025545 172.187142 
L 127.992977 172.300141 
L 127.98001 172.347606 
L 127.928862 172.50807 
L 127.869802 172.668534 
L 127.820134 172.787093 
L 127.803283 172.828998 
L 127.731388 172.989462 
L 127.65027 173.149926 
L 127.64729 173.155355 
L 127.564509 173.31039 
L 127.474446 173.461477 
L 127.468962 173.470854 
L 127.368066 173.631318 
L 127.301602 173.727825 
L 127.257892 173.791782 
L 127.139138 173.952246 
L 127.128758 173.96549 
L 127.012925 174.11271 
L 126.955915 174.180365 
L 126.876642 174.273174 
L 126.783071 174.376413 
L 126.729968 174.433638 
L 126.610227 174.556378 
L 126.572153 174.594102 
L 126.437383 174.72231 
L 126.401925 174.754566 
L 126.264539 174.87569 
L 126.217347 174.91503 
L 126.091696 175.01751 
L 126.015622 175.075494 
L 125.918852 175.148343 
L 125.792797 175.235958 
L 125.746008 175.268383 
L 125.573164 175.378416 
L 125.542111 175.396422 
L 125.400321 175.479556 
L 125.2515 175.556886 
L 125.227477 175.569629 
L 125.054633 175.651402 
L 124.892253 175.71735 
L 124.881789 175.721751 
L 124.708945 175.78381 
L 124.536102 175.834328 
L 124.363258 175.873507 
L 124.335903 175.877813 
L 124.190414 175.902121 
L 124.01757 175.91802 
L 123.844726 175.92005 
L 123.671883 175.906695 
z
" clip-path="url(#p8d79472797)" style="fill: #3dbd3d; fill-opacity: 0.5"/>
   </g>
   <g id="PathCollection_11">
    <path d="M 123.671883 175.906695 
L 123.844726 175.92005 
L 124.01757 175.91802 
L 124.190414 175.902121 
L 124.335903 175.877813 
L 124.363258 175.873507 
L 124.536102 175.834328 
L 124.708945 175.78381 
L 124.881789 175.721751 
L 124.892253 175.71735 
L 125.054633 175.651402 
L 125.227477 175.569629 
L 125.2515 175.556886 
L 125.400321 175.479556 
L 125.542111 175.396422 
L 125.573164 175.378416 
L 125.746008 175.268383 
L 125.792797 175.235958 
L 125.918852 175.148343 
L 126.015622 175.075494 
L 126.091696 175.01751 
L 126.217347 174.91503 
L 126.264539 174.87569 
L 126.401925 174.754566 
L 126.437383 174.72231 
L 126.572153 174.594102 
L 126.610227 174.556378 
L 126.729968 174.433638 
L 126.783071 174.376413 
L 126.876642 174.273174 
L 126.955915 174.180365 
L 127.012925 174.11271 
L 127.128758 173.96549 
L 127.139138 173.952246 
L 127.257892 173.791782 
L 127.301602 173.727825 
L 127.368066 173.631318 
L 127.468962 173.470854 
L 127.474446 173.461477 
L 127.564509 173.31039 
L 127.64729 173.155355 
L 127.65027 173.149926 
L 127.731388 172.989462 
L 127.803283 172.828998 
L 127.820134 172.787093 
L 127.869802 172.668534 
L 127.928862 172.50807 
L 127.98001 172.347606 
L 127.992977 172.300141 
L 128.025545 172.187142 
L 128.063981 172.026679 
L 128.094732 171.866215 
L 128.117874 171.705751 
L 128.133308 171.545287 
L 128.140764 171.384823 
L 128.139788 171.224359 
L 128.129734 171.063895 
L 128.109741 170.903431 
L 128.078711 170.742967 
L 128.035281 170.582503 
L 127.992977 170.46264 
L 127.977821 170.422039 
L 127.903964 170.261575 
L 127.820134 170.1163 
L 127.810462 170.101111 
L 127.691058 169.940647 
L 127.64729 169.890156 
L 127.53712 169.780183 
L 127.474446 169.724725 
L 127.331515 169.619719 
L 127.301602 169.599567 
L 127.128758 169.504349 
L 127.021036 169.459255 
L 126.955915 169.433134 
L 126.783071 169.381923 
L 126.610227 169.348889 
L 126.437383 169.3322 
L 126.264539 169.330574 
L 126.091696 169.343206 
L 125.918852 169.369713 
L 125.746008 169.4101 
L 125.590382 169.459255 
L 125.573164 169.464475 
L 125.400321 169.530375 
L 125.227477 169.611162 
L 125.211764 169.619719 
L 125.054633 169.703375 
L 124.930724 169.780183 
L 124.881789 169.810066 
L 124.708945 169.93 
L 124.695084 169.940647 
L 124.536102 170.062572 
L 124.490504 170.101111 
L 124.363258 170.209349 
L 124.306723 170.261575 
L 124.190414 170.370587 
L 124.139175 170.422039 
L 124.01757 170.54695 
L 123.984849 170.582503 
L 123.844726 170.739556 
L 123.841814 170.742967 
L 123.707919 170.903431 
L 123.671883 170.948457 
L 123.582393 171.063895 
L 123.499039 171.177135 
L 123.464993 171.224359 
L 123.354562 171.384823 
L 123.326195 171.428112 
L 123.250097 171.545287 
L 123.153351 171.705751 
L 123.153351 171.705751 
L 123.060421 171.866215 
L 122.980508 172.017043 
L 122.975335 172.026679 
L 122.893752 172.187142 
L 122.819681 172.347606 
L 122.807664 172.37559 
L 122.749247 172.50807 
L 122.685221 172.668534 
L 122.63482 172.809004 
L 122.627365 172.828998 
L 122.573192 172.989462 
L 122.525675 173.149926 
L 122.484554 173.31039 
L 122.461976 173.414255 
L 122.448988 173.470854 
L 122.418949 173.631318 
L 122.395917 173.791782 
L 122.380126 173.952246 
L 122.371994 174.11271 
L 122.372144 174.273174 
L 122.381441 174.433638 
L 122.401035 174.594102 
L 122.432426 174.754566 
L 122.461976 174.861771 
L 122.477457 174.91503 
L 122.53896 175.075494 
L 122.620809 175.235958 
L 122.63482 175.258715 
L 122.731071 175.396422 
L 122.807664 175.485536 
L 122.881027 175.556886 
L 122.980508 175.639717 
L 123.099746 175.71735 
L 123.153351 175.748568 
L 123.326195 175.824817 
L 123.499039 175.875802 
L 123.509897 175.877813 
z
M 124.210507 174.754566 
L 124.190414 174.752424 
L 124.01757 174.704423 
L 123.844726 174.617421 
L 123.812698 174.594102 
L 123.671883 174.465369 
L 123.645771 174.433638 
L 123.545019 174.273174 
L 123.499039 174.166733 
L 123.479393 174.11271 
L 123.440882 173.952246 
L 123.421096 173.791782 
L 123.417037 173.631318 
L 123.426491 173.470854 
L 123.447849 173.31039 
L 123.479985 173.149926 
L 123.499039 173.07793 
L 123.522709 172.989462 
L 123.575206 172.828998 
L 123.636599 172.668534 
L 123.671883 172.58786 
L 123.707683 172.50807 
L 123.788116 172.347606 
L 123.844726 172.245236 
L 123.878159 172.187142 
L 123.978474 172.026679 
L 124.01757 171.96858 
L 124.090305 171.866215 
L 124.190414 171.734263 
L 124.213612 171.705751 
L 124.351276 171.545287 
L 124.363258 171.531932 
L 124.507028 171.384823 
L 124.536102 171.356163 
L 124.684369 171.224359 
L 124.708945 171.2031 
L 124.881789 171.070893 
L 124.892413 171.063895 
L 125.054633 170.958464 
L 125.156028 170.903431 
L 125.227477 170.864803 
L 125.400321 170.790131 
L 125.546589 170.742967 
L 125.573164 170.734316 
L 125.746008 170.698679 
L 125.918852 170.684206 
L 126.091696 170.693097 
L 126.264539 170.728693 
L 126.303367 170.742967 
L 126.437383 170.798689 
L 126.598877 170.903431 
L 126.610227 170.912218 
L 126.75547 171.063895 
L 126.783071 171.100858 
L 126.857671 171.224359 
L 126.927775 171.384823 
L 126.955915 171.479872 
L 126.972862 171.545287 
L 126.997754 171.705751 
L 127.006772 171.866215 
L 127.00171 172.026679 
L 126.9839 172.187142 
L 126.955915 172.33852 
L 126.954237 172.347606 
L 126.912717 172.50807 
L 126.860686 172.668534 
L 126.798281 172.828998 
L 126.783071 172.862407 
L 126.724542 172.989462 
L 126.640428 173.149926 
L 126.610227 173.201279 
L 126.54446 173.31039 
L 126.437383 173.470854 
L 126.437383 173.470854 
L 126.31613 173.631318 
L 126.264539 173.694373 
L 126.180633 173.791782 
L 126.091696 173.888212 
L 126.028604 173.952246 
L 125.918852 174.057436 
L 125.856261 174.11271 
L 125.746008 174.205667 
L 125.657598 174.273174 
L 125.573164 174.335401 
L 125.423139 174.433638 
L 125.400321 174.448216 
L 125.227477 174.543948 
L 125.119625 174.594102 
L 125.054633 174.624018 
L 124.881789 174.687238 
L 124.708945 174.733839 
L 124.58123 174.754566 
L 124.536102 174.761949 
L 124.363258 174.769076 
z
" clip-path="url(#p8d79472797)" style="fill: #2d982d; fill-opacity: 0.5"/>
   </g>
   <g id="PathCollection_12">
    <path d="M 124.363258 174.769076 
L 124.536102 174.761949 
L 124.58123 174.754566 
L 124.708945 174.733839 
L 124.881789 174.687238 
L 125.054633 174.624018 
L 125.119625 174.594102 
L 125.227477 174.543948 
L 125.400321 174.448216 
L 125.423139 174.433638 
L 125.573164 174.335401 
L 125.657598 174.273174 
L 125.746008 174.205667 
L 125.856261 174.11271 
L 125.918852 174.057436 
L 126.028604 173.952246 
L 126.091696 173.888212 
L 126.180633 173.791782 
L 126.264539 173.694373 
L 126.31613 173.631318 
L 126.437383 173.470854 
L 126.437383 173.470854 
L 126.54446 173.31039 
L 126.610227 173.201279 
L 126.640428 173.149926 
L 126.724542 172.989462 
L 126.783071 172.862407 
L 126.798281 172.828998 
L 126.860686 172.668534 
L 126.912717 172.50807 
L 126.954237 172.347606 
L 126.955915 172.33852 
L 126.9839 172.187142 
L 127.00171 172.026679 
L 127.006772 171.866215 
L 126.997754 171.705751 
L 126.972862 171.545287 
L 126.955915 171.479872 
L 126.927775 171.384823 
L 126.857671 171.224359 
L 126.783071 171.100858 
L 126.75547 171.063895 
L 126.610227 170.912218 
L 126.598877 170.903431 
L 126.437383 170.798689 
L 126.303367 170.742967 
L 126.264539 170.728693 
L 126.091696 170.693097 
L 125.918852 170.684206 
L 125.746008 170.698679 
L 125.573164 170.734316 
L 125.546589 170.742967 
L 125.400321 170.790131 
L 125.227477 170.864803 
L 125.156028 170.903431 
L 125.054633 170.958464 
L 124.892413 171.063895 
L 124.881789 171.070893 
L 124.708945 171.2031 
L 124.684369 171.224359 
L 124.536102 171.356163 
L 124.507028 171.384823 
L 124.363258 171.531932 
L 124.351276 171.545287 
L 124.213612 171.705751 
L 124.190414 171.734263 
L 124.090305 171.866215 
L 124.01757 171.96858 
L 123.978474 172.026679 
L 123.878159 172.187142 
L 123.844726 172.245236 
L 123.788116 172.347606 
L 123.707683 172.50807 
L 123.671883 172.58786 
L 123.636599 172.668534 
L 123.575206 172.828998 
L 123.522709 172.989462 
L 123.499039 173.07793 
L 123.479985 173.149926 
L 123.447849 173.31039 
L 123.426491 173.470854 
L 123.417037 173.631318 
L 123.421096 173.791782 
L 123.440882 173.952246 
L 123.479393 174.11271 
L 123.499039 174.166733 
L 123.545019 174.273174 
L 123.645771 174.433638 
L 123.671883 174.465369 
L 123.812698 174.594102 
L 123.844726 174.617421 
L 124.01757 174.704423 
L 124.190414 174.752424 
L 124.210507 174.754566 
z
" clip-path="url(#p8d79472797)" style="fill: #376f37; fill-opacity: 0.5"/>
   </g>
   <g id="matplotlib.axis_1">
    <g id="xtick_1">
     <g id="line2d_1">
      <defs>
       <path id="m267f2ea9ac" d="M 0 0 
L 0 9 
" style="stroke: #000000; stroke-width: 1.875"/>
      </defs>
      <g>
       <use xlink:href="#m267f2ea9ac" x="87.185985" y="256.32" style="stroke: #000000; stroke-width: 1.875"/>
      </g>
     </g>
     <g id="text_1">
      <!-- −1 -->
      <g transform="translate(75.02368 281.357422) scale(0.165 -0.165)">
       <defs>
        <path id="DejaVuSerif-2212" d="M 678 2259 
L 4684 2259 
L 4684 1753 
L 678 1753 
L 678 2259 
z
" transform="scale(0.015625)"/>
        <path id="DejaVuSerif-31" d="M 909 0 
L 909 331 
L 1722 331 
L 1722 4213 
L 781 3603 
L 781 4013 
L 1919 4750 
L 2350 4750 
L 2350 331 
L 3163 331 
L 3163 0 
L 909 0 
z
" transform="scale(0.015625)"/>
       </defs>
       <use xlink:href="#DejaVuSerif-2212"/>
       <use xlink:href="#DejaVuSerif-31" x="83.789062"/>
      </g>
     </g>
    </g>
    <g id="xtick_2">
     <g id="line2d_2">
      <g>
       <use xlink:href="#m267f2ea9ac" x="145.388707" y="256.32" style="stroke: #000000; stroke-width: 1.875"/>
      </g>
     </g>
     <g id="text_2">
      <!-- 0 -->
      <g transform="translate(140.139644 281.357422) scale(0.165 -0.165)">
       <defs>
        <path id="DejaVuSerif-30" d="M 2034 219 
Q 2513 219 2750 744 
Q 2988 1269 2988 2328 
Q 2988 3391 2750 3916 
Q 2513 4441 2034 4441 
Q 1556 4441 1318 3916 
Q 1081 3391 1081 2328 
Q 1081 1269 1318 744 
Q 1556 219 2034 219 
z
M 2034 -91 
Q 1275 -91 848 546 
Q 422 1184 422 2328 
Q 422 3475 848 4112 
Q 1275 4750 2034 4750 
Q 2797 4750 3222 4112 
Q 3647 3475 3647 2328 
Q 3647 1184 3222 546 
Q 2797 -91 2034 -91 
z
" transform="scale(0.015625)"/>
       </defs>
       <use xlink:href="#DejaVuSerif-30"/>
      </g>
     </g>
    </g>
    <g id="xtick_3">
     <g id="line2d_3">
      <g>
       <use xlink:href="#m267f2ea9ac" x="203.591429" y="256.32" style="stroke: #000000; stroke-width: 1.875"/>
      </g>
     </g>
     <g id="text_3">
      <!-- 1 -->
      <g transform="translate(198.342366 281.357422) scale(0.165 -0.165)">
       <use xlink:href="#DejaVuSerif-31"/>
      </g>
     </g>
    </g>
    <g id="text_4">
     <!-- PC1 -->
     <g transform="translate(128.932031 302.466094) scale(0.18 -0.18)">
      <defs>
       <path id="DejaVuSerif-50" d="M 1581 2375 
L 2406 2375 
Q 2872 2375 3115 2626 
Q 3359 2878 3359 3353 
Q 3359 3831 3115 4081 
Q 2872 4331 2406 4331 
L 1581 4331 
L 1581 2375 
z
M 353 0 
L 353 331 
L 947 331 
L 947 4331 
L 353 4331 
L 353 4666 
L 2559 4666 
Q 3259 4666 3668 4311 
Q 4078 3956 4078 3353 
Q 4078 2753 3668 2397 
Q 3259 2041 2559 2041 
L 1581 2041 
L 1581 331 
L 2303 331 
L 2303 0 
L 353 0 
z
" transform="scale(0.015625)"/>
       <path id="DejaVuSerif-43" d="M 4513 1234 
Q 4306 581 3820 245 
Q 3334 -91 2591 -91 
Q 2134 -91 1743 65 
Q 1353 222 1050 525 
Q 700 875 529 1320 
Q 359 1766 359 2328 
Q 359 3416 987 4083 
Q 1616 4750 2644 4750 
Q 3025 4750 3456 4650 
Q 3888 4550 4384 4347 
L 4384 3272 
L 4031 3272 
Q 3916 3859 3567 4137 
Q 3219 4416 2591 4416 
Q 1844 4416 1459 3886 
Q 1075 3356 1075 2328 
Q 1075 1303 1459 773 
Q 1844 244 2591 244 
Q 3113 244 3450 492 
Q 3788 741 3938 1234 
L 4513 1234 
z
" transform="scale(0.015625)"/>
      </defs>
      <use xlink:href="#DejaVuSerif-50"/>
      <use xlink:href="#DejaVuSerif-43" x="67.285156"/>
      <use xlink:href="#DejaVuSerif-31" x="143.798828"/>
     </g>
    </g>
   </g>
   <g id="matplotlib.axis_2">
    <g id="ytick_1">
     <g id="line2d_4">
      <defs>
       <path id="m3af6aeda7b" d="M 0 0 
L -9 0 
" style="stroke: #000000; stroke-width: 1.875"/>
      </defs>
      <g>
       <use xlink:href="#m3af6aeda7b" x="47.776144" y="214.365276" style="stroke: #000000; stroke-width: 1.875"/>
      </g>
     </g>
     <g id="text_5">
      <!-- −1 -->
      <g transform="translate(10.951535 220.633987) scale(0.165 -0.165)">
       <use xlink:href="#DejaVuSerif-2212"/>
       <use xlink:href="#DejaVuSerif-31" x="83.789062"/>
      </g>
     </g>
    </g>
    <g id="ytick_2">
     <g id="line2d_5">
      <g>
       <use xlink:href="#m3af6aeda7b" x="47.776144" y="156.162554" style="stroke: #000000; stroke-width: 1.875"/>
      </g>
     </g>
     <g id="text_6">
      <!-- 0 -->
      <g transform="translate(24.778019 162.431265) scale(0.165 -0.165)">
       <use xlink:href="#DejaVuSerif-30"/>
      </g>
     </g>
    </g>
    <g id="ytick_3">
     <g id="line2d_6">
      <g>
       <use xlink:href="#m3af6aeda7b" x="47.776144" y="97.959832" style="stroke: #000000; stroke-width: 1.875"/>
      </g>
     </g>
     <g id="text_7">
      <!-- 1 -->
      <g transform="translate(24.778019 104.228543) scale(0.165 -0.165)">
       <use xlink:href="#DejaVuSerif-31"/>
      </g>
     </g>
    </g>
    <g id="ytick_4">
     <g id="line2d_7">
      <g>
       <use xlink:href="#m3af6aeda7b" x="47.776144" y="39.75711" style="stroke: #000000; stroke-width: 1.875"/>
      </g>
     </g>
     <g id="text_8">
      <!-- 2 -->
      <g transform="translate(24.778019 46.025821) scale(0.165 -0.165)">
       <defs>
        <path id="DejaVuSerif-32" d="M 819 3553 
L 469 3553 
L 469 4384 
Q 803 4563 1142 4656 
Q 1481 4750 1806 4750 
Q 2534 4750 2956 4397 
Q 3378 4044 3378 3438 
Q 3378 2753 2422 1800 
Q 2347 1728 2309 1691 
L 1131 513 
L 3078 513 
L 3078 1088 
L 3444 1088 
L 3444 0 
L 434 0 
L 434 341 
L 1850 1753 
Q 2319 2222 2519 2614 
Q 2719 3006 2719 3438 
Q 2719 3909 2473 4175 
Q 2228 4441 1797 4441 
Q 1350 4441 1106 4219 
Q 863 3997 819 3553 
z
" transform="scale(0.015625)"/>
       </defs>
       <use xlink:href="#DejaVuSerif-32"/>
      </g>
     </g>
    </g>
    <g id="text_9">
     <!-- PC2 -->
     <g transform="translate(3.208097 164.107969) rotate(-90) scale(0.18 -0.18)">
      <use xlink:href="#DejaVuSerif-50"/>
      <use xlink:href="#DejaVuSerif-43" x="67.285156"/>
      <use xlink:href="#DejaVuSerif-32" x="143.798828"/>
     </g>
    </g>
   </g>
   <g id="patch_3">
    <path d="M 47.776144 256.32 
L 47.776144 34.56 
" style="fill: none; stroke: #000000; stroke-width: 1.875; stroke-linejoin: miter; stroke-linecap: square"/>
   </g>
   <g id="patch_4">
    <path d="M 247.423856 256.32 
L 247.423856 34.56 
" style="fill: none; stroke: #000000; stroke-width: 1.875; stroke-linejoin: miter; stroke-linecap: square"/>
   </g>
   <g id="patch_5">
    <path d="M 47.776144 256.32 
L 247.423856 256.32 
" style="fill: none; stroke: #000000; stroke-width: 1.875; stroke-linejoin: miter; stroke-linecap: square"/>
   </g>
   <g id="patch_6">
    <path d="M 47.776144 34.56 
L 247.423856 34.56 
" style="fill: none; stroke: #000000; stroke-width: 1.875; stroke-linejoin: miter; stroke-linecap: square"/>
   </g>
   <g id="legend_1">
    <g id="patch_7">
     <path d="M 97.725028 146.087344 
L 235.873856 146.087344 
Q 239.173856 146.087344 239.173856 142.787344 
L 239.173856 46.11 
Q 239.173856 42.81 235.873856 42.81 
L 97.725028 42.81 
Q 94.425028 42.81 94.425028 46.11 
L 94.425028 142.787344 
Q 94.425028 146.087344 97.725028 146.087344 
z
" style="fill: #ffffff; opacity: 0.8; stroke: #cccccc; stroke-width: 1.5; stroke-linejoin: miter"/>
    </g>
    <g id="text_10">
     <!-- Dataset -->
     <g transform="translate(131.672723 63.087187) scale(0.18 -0.18)">
      <defs>
       <path id="DejaVuSerif-44" d="M 1581 331 
L 2163 331 
Q 3072 331 3558 850 
Q 4044 1369 4044 2338 
Q 4044 3306 3559 3818 
Q 3075 4331 2163 4331 
L 1581 4331 
L 1581 331 
z
M 353 0 
L 353 331 
L 947 331 
L 947 4331 
L 353 4331 
L 353 4666 
L 2209 4666 
Q 3416 4666 4089 4050 
Q 4763 3434 4763 2338 
Q 4763 1238 4088 619 
Q 3413 0 2209 0 
L 353 0 
z
" transform="scale(0.015625)"/>
       <path id="DejaVuSerif-61" d="M 2547 1044 
L 2547 1747 
L 1806 1747 
Q 1378 1747 1168 1562 
Q 959 1378 959 997 
Q 959 650 1171 447 
Q 1384 244 1747 244 
Q 2106 244 2326 466 
Q 2547 688 2547 1044 
z
M 3122 2075 
L 3122 331 
L 3634 331 
L 3634 0 
L 2547 0 
L 2547 359 
Q 2356 128 2106 18 
Q 1856 -91 1522 -91 
Q 969 -91 644 203 
Q 319 497 319 997 
Q 319 1513 691 1797 
Q 1063 2081 1741 2081 
L 2547 2081 
L 2547 2309 
Q 2547 2688 2317 2895 
Q 2088 3103 1672 3103 
Q 1328 3103 1125 2947 
Q 922 2791 872 2484 
L 575 2484 
L 575 3156 
Q 875 3284 1158 3348 
Q 1441 3413 1709 3413 
Q 2400 3413 2761 3070 
Q 3122 2728 3122 2075 
z
" transform="scale(0.015625)"/>
       <path id="DejaVuSerif-74" d="M 691 2988 
L 184 2988 
L 184 3322 
L 691 3322 
L 691 4353 
L 1269 4353 
L 1269 3322 
L 2350 3322 
L 2350 2988 
L 1269 2988 
L 1269 878 
Q 1269 456 1350 337 
Q 1431 219 1650 219 
Q 1875 219 1978 351 
Q 2081 484 2088 781 
L 2522 781 
Q 2497 328 2275 118 
Q 2053 -91 1600 -91 
Q 1103 -91 897 129 
Q 691 350 691 878 
L 691 2988 
z
" transform="scale(0.015625)"/>
       <path id="DejaVuSerif-73" d="M 359 184 
L 359 959 
L 691 959 
Q 703 588 923 403 
Q 1144 219 1575 219 
Q 1963 219 2166 364 
Q 2369 509 2369 788 
Q 2369 1006 2220 1140 
Q 2072 1275 1594 1428 
L 1178 1569 
Q 750 1706 558 1912 
Q 366 2119 366 2438 
Q 366 2894 700 3153 
Q 1034 3413 1625 3413 
Q 1888 3413 2178 3344 
Q 2469 3275 2778 3144 
L 2778 2419 
L 2447 2419 
Q 2434 2741 2221 2922 
Q 2009 3103 1644 3103 
Q 1281 3103 1095 2975 
Q 909 2847 909 2591 
Q 909 2381 1050 2254 
Q 1191 2128 1613 1997 
L 2069 1856 
Q 2541 1709 2748 1489 
Q 2956 1269 2956 922 
Q 2956 450 2595 179 
Q 2234 -91 1600 -91 
Q 1278 -91 972 -22 
Q 666 47 359 184 
z
" transform="scale(0.015625)"/>
       <path id="DejaVuSerif-65" d="M 3469 1600 
L 991 1600 
L 991 1575 
Q 991 903 1244 561 
Q 1497 219 1991 219 
Q 2369 219 2611 417 
Q 2853 616 2950 1006 
L 3413 1006 
Q 3275 459 2904 184 
Q 2534 -91 1931 -91 
Q 1203 -91 761 389 
Q 319 869 319 1663 
Q 319 2450 753 2931 
Q 1188 3413 1894 3413 
Q 2647 3413 3050 2948 
Q 3453 2484 3469 1600 
z
M 2791 1931 
Q 2772 2513 2545 2808 
Q 2319 3103 1894 3103 
Q 1497 3103 1269 2806 
Q 1041 2509 991 1931 
L 2791 1931 
z
" transform="scale(0.015625)"/>
      </defs>
      <use xlink:href="#DejaVuSerif-44"/>
      <use xlink:href="#DejaVuSerif-61" x="80.175781"/>
      <use xlink:href="#DejaVuSerif-74" x="139.794922"/>
      <use xlink:href="#DejaVuSerif-61" x="179.980469"/>
      <use xlink:href="#DejaVuSerif-73" x="239.599609"/>
      <use xlink:href="#DejaVuSerif-65" x="290.917969"/>
      <use xlink:href="#DejaVuSerif-74" x="350.097656"/>
     </g>
    </g>
    <g id="patch_8">
     <path d="M 101.025028 87.618047 
L 134.025028 87.618047 
L 134.025028 76.068047 
L 101.025028 76.068047 
z
" style="fill: #1f77b4; stroke: #1f77b4; stroke-width: 1.5; stroke-linejoin: miter"/>
    </g>
    <g id="text_11">
     <!-- T -->
     <g transform="translate(147.225028 87.618047) scale(0.165 -0.165)">
      <defs>
       <path id="DejaVuSerif-54" d="M 1222 0 
L 1222 331 
L 1819 331 
L 1819 4294 
L 447 4294 
L 447 3566 
L 63 3566 
L 63 4666 
L 4206 4666 
L 4206 3566 
L 3822 3566 
L 3822 4294 
L 2450 4294 
L 2450 331 
L 3047 331 
L 3047 0 
L 1222 0 
z
" transform="scale(0.015625)"/>
      </defs>
      <use xlink:href="#DejaVuSerif-54"/>
     </g>
    </g>
    <g id="patch_9">
     <path d="M 101.025028 111.836953 
L 134.025028 111.836953 
L 134.025028 100.286953 
L 101.025028 100.286953 
z
" style="fill: #ff7f0e; stroke: #ff7f0e; stroke-width: 1.5; stroke-linejoin: miter"/>
    </g>
    <g id="text_12">
     <!-- Reference -->
     <g transform="translate(147.225028 111.836953) scale(0.165 -0.165)">
      <defs>
       <path id="DejaVuSerif-52" d="M 3066 2316 
Q 3284 2256 3442 2114 
Q 3600 1972 3725 1716 
L 4403 331 
L 4972 331 
L 4972 0 
L 3872 0 
L 3144 1484 
Q 2934 1916 2759 2042 
Q 2584 2169 2278 2169 
L 1581 2169 
L 1581 331 
L 2241 331 
L 2241 0 
L 353 0 
L 353 331 
L 947 331 
L 947 4331 
L 353 4331 
L 353 4666 
L 2719 4666 
Q 3400 4666 3770 4341 
Q 4141 4016 4141 3419 
Q 4141 2938 3870 2661 
Q 3600 2384 3066 2316 
z
M 1581 2503 
L 2503 2503 
Q 2975 2503 3200 2726 
Q 3425 2950 3425 3419 
Q 3425 3888 3200 4109 
Q 2975 4331 2503 4331 
L 1581 4331 
L 1581 2503 
z
" transform="scale(0.015625)"/>
       <path id="DejaVuSerif-66" d="M 2753 4078 
L 2450 4078 
Q 2447 4313 2317 4434 
Q 2188 4556 1941 4556 
Q 1619 4556 1487 4379 
Q 1356 4203 1356 3750 
L 1356 3322 
L 2284 3322 
L 2284 2988 
L 1356 2988 
L 1356 331 
L 2094 331 
L 2094 0 
L 231 0 
L 231 331 
L 781 331 
L 781 2988 
L 231 2988 
L 231 3322 
L 781 3322 
L 781 3738 
Q 781 4294 1070 4578 
Q 1359 4863 1919 4863 
Q 2128 4863 2337 4825 
Q 2547 4788 2753 4709 
L 2753 4078 
z
" transform="scale(0.015625)"/>
       <path id="DejaVuSerif-72" d="M 3059 3328 
L 3059 2497 
L 2728 2497 
Q 2713 2744 2591 2866 
Q 2469 2988 2234 2988 
Q 1809 2988 1582 2694 
Q 1356 2400 1356 1850 
L 1356 331 
L 2022 331 
L 2022 0 
L 263 0 
L 263 331 
L 781 331 
L 781 2994 
L 231 2994 
L 231 3322 
L 1356 3322 
L 1356 2731 
Q 1525 3078 1790 3245 
Q 2056 3413 2438 3413 
Q 2578 3413 2733 3391 
Q 2888 3369 3059 3328 
z
" transform="scale(0.015625)"/>
       <path id="DejaVuSerif-6e" d="M 263 0 
L 263 331 
L 781 331 
L 781 2988 
L 231 2988 
L 231 3322 
L 1356 3322 
L 1356 2731 
Q 1516 3069 1770 3241 
Q 2025 3413 2363 3413 
Q 2913 3413 3172 3097 
Q 3431 2781 3431 2113 
L 3431 331 
L 3944 331 
L 3944 0 
L 2356 0 
L 2356 331 
L 2853 331 
L 2853 1931 
Q 2853 2541 2703 2767 
Q 2553 2994 2175 2994 
Q 1775 2994 1565 2701 
Q 1356 2409 1356 1850 
L 1356 331 
L 1856 331 
L 1856 0 
L 263 0 
z
" transform="scale(0.015625)"/>
       <path id="DejaVuSerif-63" d="M 3291 997 
Q 3169 466 2822 187 
Q 2475 -91 1925 -91 
Q 1200 -91 759 389 
Q 319 869 319 1663 
Q 319 2459 759 2936 
Q 1200 3413 1925 3413 
Q 2241 3413 2553 3339 
Q 2866 3266 3181 3116 
L 3181 2266 
L 2847 2266 
Q 2781 2703 2561 2903 
Q 2341 3103 1931 3103 
Q 1466 3103 1228 2742 
Q 991 2381 991 1663 
Q 991 944 1227 581 
Q 1463 219 1931 219 
Q 2303 219 2525 412 
Q 2747 606 2828 997 
L 3291 997 
z
" transform="scale(0.015625)"/>
      </defs>
      <use xlink:href="#DejaVuSerif-52"/>
      <use xlink:href="#DejaVuSerif-65" x="75.292969"/>
      <use xlink:href="#DejaVuSerif-66" x="134.472656"/>
      <use xlink:href="#DejaVuSerif-65" x="171.484375"/>
      <use xlink:href="#DejaVuSerif-72" x="230.664062"/>
      <use xlink:href="#DejaVuSerif-65" x="278.466797"/>
      <use xlink:href="#DejaVuSerif-6e" x="337.646484"/>
      <use xlink:href="#DejaVuSerif-63" x="402.050781"/>
      <use xlink:href="#DejaVuSerif-65" x="458.056641"/>
     </g>
    </g>
    <g id="patch_10">
     <path d="M 101.025028 136.055859 
L 134.025028 136.055859 
L 134.025028 124.505859 
L 101.025028 124.505859 
z
" style="fill: #2ca02c; stroke: #2ca02c; stroke-width: 1.5; stroke-linejoin: miter"/>
    </g>
    <g id="text_13">
     <!-- Noise -->
     <g transform="translate(147.225028 136.055859) scale(0.165 -0.165)">
      <defs>
       <path id="DejaVuSerif-4e" d="M 313 0 
L 313 331 
L 941 331 
L 941 4331 
L 313 4331 
L 313 4666 
L 1509 4666 
L 4306 984 
L 4306 4331 
L 3681 4331 
L 3681 4666 
L 5319 4666 
L 5319 4331 
L 4691 4331 
L 4691 -91 
L 4313 -91 
L 1325 3841 
L 1325 331 
L 1953 331 
L 1953 0 
L 313 0 
z
" transform="scale(0.015625)"/>
       <path id="DejaVuSerif-6f" d="M 1925 219 
Q 2388 219 2623 584 
Q 2859 950 2859 1663 
Q 2859 2375 2623 2739 
Q 2388 3103 1925 3103 
Q 1463 3103 1227 2739 
Q 991 2375 991 1663 
Q 991 950 1228 584 
Q 1466 219 1925 219 
z
M 1925 -91 
Q 1200 -91 759 389 
Q 319 869 319 1663 
Q 319 2456 758 2934 
Q 1197 3413 1925 3413 
Q 2653 3413 3092 2934 
Q 3531 2456 3531 1663 
Q 3531 869 3092 389 
Q 2653 -91 1925 -91 
z
" transform="scale(0.015625)"/>
       <path id="DejaVuSerif-69" d="M 622 4353 
Q 622 4497 726 4603 
Q 831 4709 978 4709 
Q 1122 4709 1226 4603 
Q 1331 4497 1331 4353 
Q 1331 4206 1228 4103 
Q 1125 4000 978 4000 
Q 831 4000 726 4103 
Q 622 4206 622 4353 
z
M 1356 331 
L 1900 331 
L 1900 0 
L 231 0 
L 231 331 
L 781 331 
L 781 2988 
L 231 2988 
L 231 3322 
L 1356 3322 
L 1356 331 
z
" transform="scale(0.015625)"/>
      </defs>
      <use xlink:href="#DejaVuSerif-4e"/>
      <use xlink:href="#DejaVuSerif-6f" x="87.5"/>
      <use xlink:href="#DejaVuSerif-69" x="147.705078"/>
      <use xlink:href="#DejaVuSerif-73" x="179.6875"/>
      <use xlink:href="#DejaVuSerif-65" x="231.005859"/>
     </g>
    </g>
   </g>
  </g>
 </g>
 <defs>
  <clipPath id="p8d79472797">
   <rect x="47.776144" y="34.56" width="199.647712" height="221.76"/>
  </clipPath>
 </defs>
</svg>
